<?xml version="1.0" standalone="no"?>
<!DOCTYPE svg PUBLIC "-//W3C//DTD SVG 20010904//EN"
 "http://www.w3.org/TR/2001/REC-SVG-20010904/DTD/svg10.dtd">
<svg version="1.0" xmlns="http://www.w3.org/2000/svg"
 width="731.000000pt" height="842.000000pt" viewBox="0 0 731.000000 842.000000"
 preserveAspectRatio="xMidYMid meet">
<metadata>
Created by potrace 1.16, written by Peter Selinger 2001-2019
</metadata>
<g transform="translate(0.000000,842.000000) scale(0.100000,-0.100000)"
fill="#000000" stroke="none">
<path d="M4665 8366 c-60 -13 -200 -51 -310 -84 -268 -82 -311 -92 -447 -99
-124 -6 -193 3 -306 40 -45 14 -66 17 -71 9 -4 -7 -26 -1 -66 19 -144 71 -300
103 -495 103 -122 -1 -177 -6 -350 -37 -691 -124 -867 -151 -1074 -168 -121
-10 -140 -10 -147 4 -5 8 -30 18 -56 22 -27 4 -55 13 -65 22 -10 9 -18 10 -22
4 -4 -6 -47 -7 -115 -4 -422 22 -708 -148 -740 -443 -26 -242 98 -430 328
-498 30 -9 69 -16 87 -16 31 0 32 -1 39 -57 4 -32 25 -159 47 -283 22 -124 44
-250 48 -280 5 -30 26 -138 48 -240 137 -637 235 -1017 393 -1524 84 -269 205
-619 233 -671 8 -16 59 -140 112 -275 178 -450 422 -970 629 -1340 48 -85 96
-174 105 -197 42 -94 361 -592 533 -827 228 -315 411 -538 683 -836 241 -264
652 -654 683 -648 17 3 49 55 50 80 1 9 35 47 76 85 61 55 75 73 73 93 -2 20
-8 25 -30 23 -33 -2 -32 -19 -13 207 46 531 129 1077 247 1620 28 129 52 249
53 265 5 42 74 323 141 566 170 622 419 1366 701 2094 47 121 89 222 92 225 4
3 38 82 75 175 123 304 340 821 520 1239 105 242 174 416 171 427 -5 14 6 21
58 38 80 27 138 64 200 127 103 105 167 255 167 392 0 224 -135 389 -380 464
-72 21 -92 22 -465 25 -214 1 -401 3 -415 4 -57 3 -147 25 -345 84 -337 101
-470 114 -680 71z m433 -116 c56 -11 179 -43 274 -70 192 -55 309 -75 383 -65
74 10 598 6 685 -6 104 -14 184 -55 254 -129 134 -146 170 -343 88 -493 -57
-106 -197 -202 -337 -232 -188 -40 -367 -2 -790 167 -335 134 -471 173 -463
132 4 -22 -3 -18 263 -128 l230 -95 -175 6 c-325 11 -836 -21 -1505 -93 -427
-46 -614 -56 -785 -44 -238 17 -426 59 -676 150 -194 72 -277 90 -406 90 -107
0 -108 0 -108 -24 0 -22 4 -24 80 -30 84 -8 236 -42 329 -74 l55 -19 -145 -17
c-201 -24 -490 -31 -693 -17 -250 18 -540 55 -562 73 -7 5 -35 2 -70 -7 -232
-60 -493 88 -534 305 -28 149 80 343 233 418 98 48 173 63 362 69 161 5 173 4
213 -16 66 -34 158 -51 275 -51 141 0 190 8 582 95 350 78 462 99 615 115 373
39 658 -43 903 -259 63 -55 67 -57 85 -39 23 23 11 48 -59 119 -39 39 -64 69
-55 66 67 -26 188 -39 310 -34 146 6 192 15 451 87 99 28 221 57 270 65 116
19 289 13 423 -15z m723 -971 c79 -31 213 -68 317 -89 52 -10 96 -20 98 -23 2
-2 -47 -134 -110 -293 -64 -159 -115 -283 -116 -276 0 18 -77 90 -137 128
-162 105 -394 113 -566 22 -150 -80 -258 -246 -289 -443 -27 -175 62 -411 205
-540 99 -90 194 -129 360 -150 58 -8 60 6 -33 -240 -119 -314 -264 -710 -375
-1020 -121 -336 -533 -1571 -620 -1855 -31 -102 -62 -198 -70 -215 -29 -64
-119 -429 -156 -629 l-23 -124 -40 5 c-75 8 -171 42 -231 81 -73 47 -167 147
-200 213 -54 106 -68 237 -36 332 52 149 167 260 315 303 77 21 220 21 305 -1
56 -14 66 -14 78 -2 51 51 -135 127 -274 113 -133 -14 -252 -73 -359 -180
-111 -111 -164 -241 -164 -401 0 -111 57 -239 151 -339 103 -111 226 -172 369
-183 l75 -6 -12 -96 c-50 -389 -30 -808 52 -1119 14 -52 25 -96 25 -99 0 -10
-209 186 -375 352 -462 464 -884 1000 -1241 1580 -55 88 -111 176 -125 195
-80 105 -416 760 -566 1100 -187 425 -395 965 -441 1145 -5 22 -42 139 -82
260 -63 195 -240 794 -240 815 0 4 47 9 103 12 90 4 113 9 172 37 168 78 278
213 326 399 66 259 -52 536 -278 655 -161 84 -350 87 -519 8 -56 -26 -64 -28
-68 -13 -3 9 -30 134 -59 278 l-54 260 61 13 c78 16 66 17 176 -12 370 -97
791 -98 1230 -4 80 17 156 30 170 30 14 0 90 -23 170 -51 241 -85 312 -96 605
-96 223 0 294 5 650 42 668 69 1143 106 1525 119 113 3 216 10 230 14 36 11
35 11 91 -12z m610 -151 c-10 -24 -89 -205 -176 -403 -261 -599 -545 -1274
-545 -1298 0 -6 -46 -126 -101 -266 -361 -913 -626 -1722 -805 -2461 -35 -146
-73 -294 -84 -330 -48 -160 -158 -800 -199 -1160 -34 -293 -59 -630 -62 -810
-1 -91 -3 -98 -30 -128 -19 -21 -31 -28 -34 -20 -10 32 -26 127 -40 240 -59
475 -5 1015 169 1683 18 72 39 155 46 185 33 142 163 534 488 1460 261 744
590 1638 612 1665 5 7 41 93 79 193 97 250 255 654 411 1052 73 184 141 359
152 388 l19 52 59 0 59 0 -18 -42z m-730 -424 c72 -21 143 -63 204 -119 33
-31 57 -45 70 -42 18 3 -2 -54 -142 -412 -90 -229 -168 -431 -174 -449 -11
-32 -13 -33 -48 -27 -20 4 -49 9 -66 11 -16 2 -72 25 -124 50 -125 62 -220
154 -277 269 -37 74 -39 85 -42 186 -6 171 35 291 134 399 94 100 201 149 335
149 41 1 100 -6 130 -15z m-4199 -42 c155 -55 266 -182 310 -353 53 -212 -21
-411 -197 -530 -77 -53 -194 -96 -284 -105 -52 -6 -59 -4 -64 12 -34 112 -217
874 -217 903 0 13 111 69 171 86 72 20 206 14 281 -13z"/>
<path d="M3793 6863 c-13 -2 -23 -9 -23 -16 0 -8 -3 -8 -12 1 -19 19 -47 14
-104 -19 -76 -43 -156 -120 -207 -197 -51 -78 -53 -82 -78 -185 -51 -210 -2
-404 140 -547 107 -108 231 -166 376 -177 202 -14 400 105 502 302 61 120 77
195 70 340 -6 114 -8 124 -46 200 -46 93 -112 167 -202 225 -92 59 -170 80
-293 79 -55 -1 -111 -4 -123 -6z m191 -68 c145 -37 277 -140 349 -270 44 -80
56 -127 57 -210 0 -247 -170 -469 -395 -515 -191 -39 -429 82 -523 265 -55
109 -68 251 -33 365 37 119 159 265 278 332 29 16 53 35 53 42 0 16 136 11
214 -9z"/>
<path d="M3926 6553 c-13 -14 -5 -78 14 -108 41 -67 125 -71 179 -9 17 19 32
46 33 59 0 14 1 31 2 38 1 6 -10 12 -23 12 -19 0 -24 -6 -27 -30 -6 -54 -68
-90 -113 -65 -22 11 -45 64 -38 84 6 15 -16 30 -27 19z"/>
<path d="M2366 5684 c-132 -32 -316 -151 -382 -247 -59 -85 -77 -149 -78 -267
-1 -111 12 -165 60 -262 53 -105 171 -217 299 -281 148 -74 325 -93 458 -48
389 132 494 655 192 956 -77 77 -159 126 -250 150 -73 19 -219 18 -299 -1z
m279 -59 c85 -23 151 -62 220 -130 177 -177 211 -455 81 -659 -67 -106 -193
-187 -320 -208 -251 -42 -547 154 -638 421 -16 49 -22 89 -22 152 0 80 3 93
37 162 61 124 194 223 352 261 80 19 217 20 290 1z"/>
<path d="M4120 4846 c-48 -14 -145 -60 -170 -81 -8 -7 -39 -15 -68 -17 -67 -6
-116 -44 -155 -119 -54 -106 -72 -290 -42 -432 55 -262 305 -452 570 -434 142
10 249 58 346 156 108 108 159 239 159 406 0 239 -117 423 -321 506 -67 27
-248 36 -319 15z m255 -68 c167 -42 291 -193 317 -389 33 -252 -115 -481 -353
-544 -111 -30 -249 -13 -353 43 -242 129 -344 518 -193 737 35 52 87 89 94 68
8 -22 39 -14 92 21 111 75 259 99 396 64z"/>
<path d="M4175 4662 c-39 -24 -47 -34 -95 -122 -45 -81 -43 -93 17 -109 66
-18 138 35 119 86 -7 17 -8 17 -21 -2 -28 -40 -49 -55 -77 -55 -37 0 -44 20
-22 62 45 86 85 118 152 118 48 0 78 -23 89 -69 11 -42 30 -51 39 -18 8 34
-19 89 -55 110 -38 22 -108 22 -146 -1z"/>
<path d="M2970 3436 c-110 -31 -212 -105 -272 -197 -17 -27 -42 -56 -56 -65
-13 -9 -36 -41 -50 -72 -67 -145 -3 -417 131 -560 128 -136 297 -193 465 -158
188 39 316 181 353 392 23 135 -4 312 -68 438 -54 106 -171 199 -284 225 -59
14 -164 12 -219 -3z m247 -78 c156 -58 266 -251 265 -468 0 -200 -76 -337
-230 -412 -60 -30 -75 -33 -157 -33 -49 0 -108 6 -130 12 -115 35 -213 131
-286 278 -105 216 -89 368 47 436 32 17 43 27 39 39 -11 34 111 124 210 156
65 21 176 17 242 -8z"/>
<path d="M5392 6075 c-84 -70 -57 -188 45 -202 65 -9 123 32 123 86 0 30 -41
27 -70 -4 -27 -29 -47 -31 -78 -9 -31 22 -30 73 3 104 25 23 33 50 16 50 -5 0
-23 -11 -39 -25z"/>
<path d="M1302 6594 c-54 -28 -88 -124 -43 -124 14 0 23 12 33 43 18 57 54 63
102 15 18 -18 35 -39 37 -47 9 -25 29 -1 29 34 0 74 -85 116 -158 79z"/>
<path d="M1613 6404 c2 -50 -1 -58 -26 -80 -38 -32 -63 -30 -98 7 -44 47 -80
23 -43 -29 22 -32 67 -52 115 -52 33 0 47 6 75 34 29 29 34 41 34 83 0 51 -21
93 -45 93 -11 0 -14 -13 -12 -56z"/>
</g>
</svg>
